<svg width="144" height="26" viewBox="0 0 144 26" fill="none" xmlns="http://www.w3.org/2000/svg">
<path d="M0.351562 25V24.9414H0.820312C1.46484 24.9414 2.02148 24.707 2.49023 24.209C2.92969 23.7402 3.16406 23.1836 3.16406 22.5391V4.02344C3.16406 3.37891 2.92969 2.82227 2.49023 2.32422C2.02148 1.85547 1.46484 1.62109 0.820312 1.62109H0.351562V1.5625H18.5156V9.38477H18.4863C18.0176 7.12891 16.9629 5.25391 15.293 3.81836C13.623 2.38281 11.7773 1.65039 9.72656 1.62109H8.08594V12.4902H9.49219C10.5469 12.4902 11.6309 12.0508 12.7734 11.1719C13.916 10.293 14.6191 8.97461 14.8828 7.1875H14.9121V17.8516H14.8828C14.6191 16.0645 13.916 14.7461 12.7734 13.8672C11.6309 12.9883 10.5469 12.5488 9.49219 12.5488H8.08594V22.5391C8.08594 23.1836 8.32031 23.7402 8.78906 24.209C9.22852 24.707 9.78516 24.9414 10.4297 24.9414H11.3672C13.0078 24.9707 14.8242 23.9746 16.8457 21.8945C18.8672 19.8438 20.332 17.6465 21.2988 15.2734H21.3281L18.9844 25H0.351562ZM35.625 2.96875V9.53125H35.5664C35.0098 7.04102 34.0723 5.01953 32.7539 3.52539C31.4355 2.03125 30.0293 1.26953 28.5352 1.29883C27.3926 1.29883 26.5137 1.5918 25.8398 2.20703C25.166 2.82227 24.8145 3.61328 24.8438 4.60938C24.8145 5.45898 25.1953 6.25 25.957 6.98242C26.7188 7.71484 27.7734 8.41797 29.1211 9.0625L33.2227 11.084C34.5703 11.7578 35.6543 12.6074 36.5039 13.6621C37.3242 14.7461 37.7344 16.123 37.7344 17.793C37.7344 19.8438 37.002 21.6016 35.5664 23.0957C34.1309 24.5898 32.4609 25.3516 30.5859 25.3516C28.5645 25.3516 26.8066 25.0879 25.3125 24.5898C23.8184 24.0918 22.4707 23.4473 21.3281 22.6562L22.3828 14.2188H22.4414C22.7344 17.5293 23.6133 20.1953 25.0781 22.1875C26.543 24.209 28.3887 25.2344 30.5859 25.2637C32.1094 25.2637 33.252 24.8535 34.043 24.0332C34.8047 23.2422 35.1855 22.1875 35.1562 20.8984C35.1855 19.873 34.8633 18.9062 34.1602 17.9688C33.457 17.0312 32.4023 16.1816 30.9961 15.4199L26.8945 13.3984C25.3711 12.666 24.1699 11.7871 23.3203 10.791C22.4707 9.79492 22.0312 8.62305 22.0312 7.30469C22.0312 5.51758 22.7051 4.05273 24.082 2.91016C25.459 1.76758 27.0996 1.21094 29.0039 1.21094C31.5527 1.21094 33.75 1.79688 35.625 2.96875ZM53.2031 2.96875V9.53125H53.1445C52.5879 7.04102 51.6504 5.01953 50.332 3.52539C49.0137 2.03125 47.6074 1.26953 46.1133 1.29883C44.9707 1.29883 44.0918 1.5918 43.418 2.20703C42.7441 2.82227 42.3926 3.61328 42.4219 4.60938C42.3926 5.45898 42.7734 6.25 43.5352 6.98242C44.2969 7.71484 45.3516 8.41797 46.6992 9.0625L50.8008 11.084C52.1484 11.7578 53.2324 12.6074 54.082 13.6621C54.9023 14.7461 55.3125 16.123 55.3125 17.793C55.3125 19.8438 54.5801 21.6016 53.1445 23.0957C51.709 24.5898 50.0391 25.3516 48.1641 25.3516C46.1426 25.3516 44.3848 25.0879 42.8906 24.5898C41.3965 24.0918 40.0488 23.4473 38.9062 22.6562L39.9609 14.2188H40.0195C40.3125 17.5293 41.1914 20.1953 42.6562 22.1875C44.1211 24.209 45.9668 25.2344 48.1641 25.2637C49.6875 25.2637 50.8301 24.8535 51.6211 24.0332C52.3828 23.2422 52.7637 22.1875 52.7344 20.8984C52.7637 19.873 52.4414 18.9062 51.7383 17.9688C51.0352 17.0312 49.9805 16.1816 48.5742 15.4199L44.4727 13.3984C42.9492 12.666 41.748 11.7871 40.8984 10.791C40.0488 9.79492 39.6094 8.62305 39.6094 7.30469C39.6094 5.51758 40.2832 4.05273 41.6602 2.91016C43.0371 1.76758 44.6777 1.21094 46.582 1.21094C49.1309 1.21094 51.3281 1.79688 53.2031 2.96875ZM56.25 25V24.9414H56.7188C57.3633 24.9414 57.9199 24.707 58.3887 24.209C58.8281 23.7402 59.0625 23.1836 59.0625 22.5391V4.02344C59.0625 3.37891 58.8281 2.82227 58.3887 2.32422C57.9199 1.85547 57.3633 1.62109 56.7188 1.62109H56.25V1.5625H74.4141V9.38477H74.3848C73.916 7.12891 72.8613 5.25391 71.1914 3.81836C69.5215 2.38281 67.6758 1.65039 65.625 1.62109H63.9844V12.4902H65.3906C66.4453 12.4902 67.5293 12.0508 68.6719 11.1719C69.8145 10.293 70.5176 8.97461 70.7812 7.1875H70.8105V17.8516H70.7812C70.5176 16.0645 69.8145 14.7461 68.6719 13.8672C67.5293 12.9883 66.4453 12.5488 65.3906 12.5488H63.9844V22.5391C63.9844 23.1836 64.2188 23.7402 64.6875 24.209C65.127 24.707 65.6836 24.9414 66.3281 24.9414H67.2656C68.9062 24.9707 70.7227 23.9746 72.7441 21.8945C74.7656 19.8438 76.2305 17.6465 77.1973 15.2734H77.2266L74.8828 25H56.25ZM79.3945 4.63867V18.2031C79.3945 19.375 79.541 20.4883 79.8047 21.543C80.0684 22.5977 80.5957 23.418 81.3574 24.0332C82.1191 24.6484 82.8809 24.9414 83.6133 24.9414H83.8477V25H74.8828V24.9414H75.1172C75.8496 24.9414 76.6113 24.6484 77.373 24.0332C78.1348 23.418 78.6621 22.5977 78.9258 21.543C79.1895 20.4883 79.3359 19.375 79.3359 18.2031V4.58008L78.8672 4.02344C78.1641 3.29102 77.4316 2.70508 76.6699 2.26562C75.9082 1.82617 75.1172 1.62109 74.2969 1.62109V1.5625H82.9688L97.207 18.3496V8.35938C97.207 7.1875 97.0605 6.07422 96.7969 5.01953C96.5332 3.96484 96.0059 3.14453 95.2441 2.5293C94.4824 1.91406 93.7207 1.62109 92.9883 1.62109H92.7539V1.5625H101.719V1.62109H101.484C100.752 1.62109 99.9902 1.91406 99.2285 2.5293C98.4668 3.14453 97.9395 3.96484 97.6758 5.01953C97.4121 6.07422 97.2656 7.1875 97.2656 8.35938V25.7031L79.3945 4.63867ZM99.375 25L114.492 1.62109H113.145C110.479 1.62109 107.959 2.5293 105.586 4.3457C103.213 6.16211 101.514 8.21289 100.488 10.4688H100.43L102.832 1.5625H120.293L105.176 24.9414H108.457C110.42 24.9414 112.617 23.916 115.107 21.8652C117.598 19.8438 119.297 17.6465 120.264 15.2734H120.293L117.949 25H99.375ZM126.533 16.5625H133.477L130.02 7.65625L126.533 16.5625ZM133.535 16.6797H126.504L126.123 17.6465C125.625 19.082 125.449 20.3711 125.625 21.4551C125.801 22.5684 126.24 23.418 126.973 24.0332C127.676 24.6484 128.408 24.9414 129.199 24.9414V25H120.293V24.9414C121.201 24.9121 122.139 24.3262 123.105 23.2129C124.072 22.0996 125.039 20.2539 126.006 17.6465L132.598 0.742188L140.684 21.4844C141.24 22.8027 141.797 23.7109 142.295 24.209C142.793 24.707 143.35 24.9414 143.965 24.9414V25H133.535V24.9414C134.18 24.9121 134.707 24.707 135.088 24.3262C135.469 23.9453 135.645 23.5352 135.674 23.0371C135.703 22.5684 135.615 22.041 135.41 21.4844L133.535 16.6797Z" fill="#A87B22"/>
</svg>
